<svg width="800" height="800" viewBox="0 0 800 800" fill="none" xmlns="http://www.w3.org/2000/svg">
<path d="M0.974609 400.487C0.974609 179.842 179.843 0.974365 400.487 0.974365C621.132 0.974365 800 179.842 800 400.487C800 621.132 621.132 800 400.487 800C179.843 800 0.974609 621.132 0.974609 400.487Z" fill="black"/>
<path fill-rule="evenodd" clip-rule="evenodd" d="M399.866 0C179.038 0 0 178.918 0 399.65C0 576.22 114.553 725.999 273.484 778.807C293.511 782.516 300.774 770.188 300.774 759.567C300.774 750.094 300.427 724.985 300.24 691.603C188.998 715.778 165.527 638.021 165.527 638.021C147.343 591.857 121.121 579.582 121.121 579.582C84.8063 554.792 123.872 555.299 123.872 555.299C164.005 558.128 185.127 596.473 185.127 596.473C220.801 657.553 278.744 639.862 301.495 629.695C305.126 603.811 315.46 586.253 326.889 576.246C238.104 566.16 144.753 531.871 144.753 378.756C144.753 335.128 160.32 299.424 185.901 271.486C181.815 261.426 168.064 220.786 189.826 165.763C189.826 165.763 223.391 155.036 299.813 206.75C331.695 197.837 365.901 193.407 399.919 193.274C433.884 193.407 468.117 197.864 500.026 206.75C576.394 155.009 609.905 165.763 609.905 165.763C631.721 220.812 617.996 261.426 613.884 271.486C639.518 299.424 654.979 335.101 654.979 378.756C654.979 532.244 561.494 566.053 472.416 575.926C486.755 588.281 499.545 612.724 499.545 650.002C499.545 703.397 499.065 746.492 499.065 759.594C499.065 770.294 506.247 782.756 526.568 778.78C685.313 725.812 799.785 576.14 799.785 399.65C799.785 178.918 620.747 0 399.866 0Z" fill="#EA2868"/>
</svg>
