<svg width="800" height="800" viewBox="0 0 800 800" fill="none" xmlns="http://www.w3.org/2000/svg">
<rect width="800" height="800" rx="89" fill="black"/>
<path d="M88.8889 0H711.111C734.686 0 757.295 9.36505 773.965 26.0349C790.635 42.7048 800 65.3141 800 88.8889V711.111C800 734.686 790.635 757.295 773.965 773.965C757.295 790.635 734.686 800 711.111 800H88.8889C65.3141 800 42.7048 790.635 26.0349 773.965C9.36505 757.295 0 734.686 0 711.111V88.8889C0 65.3141 9.36505 42.7048 26.0349 26.0349C42.7048 9.36505 65.3141 0 88.8889 0ZM653.778 281.333C676.92 264.526 696.423 243.209 711.111 218.667C690.972 228.344 669.327 234.507 647.111 236.889C670.339 221.075 687.807 198.148 696.889 171.556C673.688 184.982 648.476 194.587 622.222 200C603.976 180.482 579.777 167.559 553.408 163.25C527.04 158.941 499.986 163.489 476.476 176.183C452.965 188.878 434.323 209.004 423.462 233.415C412.601 257.827 410.133 285.149 416.444 311.111C369.001 308.385 322.656 295.744 280.399 274.003C238.142 252.262 200.912 221.905 171.111 184.889C157.487 211.342 153.539 241.725 159.951 270.781C166.362 299.837 182.73 325.738 206.222 344C188.512 342.606 171.272 337.616 155.556 329.333C154.86 356.804 163.684 383.67 180.532 405.378C197.38 427.086 221.216 442.301 248 448.444C231.235 451.339 214.098 451.339 197.333 448.444C204.384 472.254 218.727 493.253 238.341 508.481C257.955 523.71 281.852 532.402 306.667 533.333C257.338 571.282 195.156 588.501 133.333 581.333C189.099 619.777 255.888 638.97 323.556 636C519.556 627.111 650.667 488.889 653.778 281.333Z" fill="#EA2868"/>
</svg>
